<?xml version="1.0" encoding="UTF-8" standalone="no"?>
<!-- Generator: Adobe Illustrator 26.0.3, SVG Export Plug-In . SVG Version: 6.00 Build 0)  -->

<svg
   version="1.0"
   id="katman_1"
   x="0px"
   y="0px"
   viewBox="0 0 600 450"
   style="enable-background:new 0 0 600 450;"
   xml:space="preserve"
   sodipodi:docname="neo4j.svg"
   inkscape:version="1.3.2 (091e20e, 2023-11-25)"
   xmlns:inkscape="http://www.inkscape.org/namespaces/inkscape"
   xmlns:sodipodi="http://sodipodi.sourceforge.net/DTD/sodipodi-0.dtd"
   xmlns="http://www.w3.org/2000/svg"
   xmlns:svg="http://www.w3.org/2000/svg"><defs
   id="defs7" /><sodipodi:namedview
   id="namedview7"
   pagecolor="#ffffff"
   bordercolor="#000000"
   borderopacity="0.25"
   inkscape:showpageshadow="2"
   inkscape:pageopacity="0.0"
   inkscape:pagecheckerboard="0"
   inkscape:deskcolor="#d1d1d1"
   inkscape:export-bgcolor="#ffffffff"
   inkscape:zoom="0.52444444"
   inkscape:cx="299.36441"
   inkscape:cy="225"
   inkscape:window-width="1440"
   inkscape:window-height="781"
   inkscape:window-x="0"
   inkscape:window-y="25"
   inkscape:window-maximized="1"
   inkscape:current-layer="katman_1" />
<style
   type="text/css"
   id="style1">
	.st0{fill:#010202;}
	.st1{fill:#3F7EC1;}
</style>
<path
   class="st0"
   d="m 139.39366,182.24853 c -28.43214,0 -47.58272,16.33086 -47.58272,48.64011 v 19.73802 c 2.93721,-1.29237 6.10939,-2.11479 9.28157,-2.23228 3.28967,-0.11749 6.46185,0.70493 9.28157,2.23228 v -19.73802 c 0,-20.79541 11.51384,-31.72181 29.01958,-31.72181 17.50574,0 29.01958,10.9264 29.01958,31.72181 v 50.28494 h 18.56313 v -50.28494 c 0,-32.30925 -19.15057,-48.64011 -47.58271,-48.64011"
   id="path1"
   style="stroke-width:1.17488" />
<path
   class="st0"
   d="m 196.84538,233.00343 c 0,-29.48954 21.26536,-50.87239 51.92978,-50.87239 30.66441,0 51.22484,21.26537 51.22484,50.87239 v 6.57934 h -83.41661 c 2.23228,15.97839 16.21337,27.60972 32.19177,26.7873 12.57123,0 21.38285,-3.75962 26.7873,-11.98379 h 20.44295 c -8.22418,18.68062 -27.13977,30.42944 -47.58272,29.48953 -27.13977,1.17488 -50.04996,-19.97299 -51.22485,-47.11276 0,-1.29237 0,-2.46725 0,-3.75962 m 83.88657,-9.75152 c -3.52465,-14.80351 -17.03579,-24.9075 -32.19176,-24.08508 -15.03849,-0.82242 -28.43215,9.39906 -31.72181,24.08508 z"
   id="path2"
   style="stroke-width:1.17488" />
<path
   class="st0"
   d="m 310.57394,233.00343 c 0,-29.48954 21.38285,-50.87239 51.92978,-50.87239 27.60972,-1.05739 50.75489,20.44295 51.81229,47.93518 0,0.93991 0,1.87981 0,2.81972 0,29.48953 -21.26536,50.87238 -51.92978,50.87238 -30.42944,0.11749 -51.81229,-21.14787 -51.81229,-50.75489 m 84.70898,0 c 1.0574,-17.38825 -12.21877,-32.30925 -29.60702,-33.36665 -1.17488,-0.11748 -2.46725,-0.11748 -3.64213,0 -17.74072,-0.58744 -32.54423,13.39366 -33.13167,31.13437 0,0.70493 0,1.52735 0,2.23228 -1.0574,17.38825 12.21877,32.30925 29.60702,33.36664 1.17488,0.11749 2.46725,0.11749 3.64213,0 20.44295,0.58744 33.36665,-13.62863 33.36665,-33.36664"
   id="path3"
   style="stroke-width:1.17488" />
<path
   class="st0"
   d="m 520.40784,300.79411 h 2.23227 c 11.9838,0 16.33086,-5.52194 16.33086,-19.15057 v -92.93316 h 18.56313 v 91.75827 c 0,24.08508 -9.28156,36.06888 -33.36664,36.06888 h -3.75962 z"
   id="path4"
   style="stroke-width:1.17488" />
<path
   class="st0"
   d="m 511.12627,290.45515 h -18.56313 v -22.9102 h -46.99528 c -8.81161,0.35247 -17.15327,-4.22957 -21.38284,-11.98379 -3.52465,-7.16678 -2.46726,-15.74342 2.81971,-21.8528 l 42.06077,-55.21945 c 5.9919,-8.22417 16.68332,-11.51384 26.19987,-8.22417 9.51654,3.05469 15.8609,11.8663 15.8609,21.8528 v 58.97907 h 10.9264 v 16.44834 h -10.9264 z M 442.2782,244.04732 c -0.70493,0.70493 -1.0574,1.64483 -1.17489,2.70223 0,2.81971 2.34977,5.16948 5.16948,5.16948 h 46.29035 v -59.80149 c 0,-3.28967 -2.11479,-4.34706 -3.28967,-4.34706 h -1.87981 c -1.52735,0 -2.93721,0.82241 -3.87711,2.11478 z"
   id="path5"
   style="stroke-width:1.17488" />
<path
   class="st1"
   d="m 548.37003,146.17966 c -8.81162,0 -15.86091,7.04929 -15.86091,15.8609 0,8.81162 7.04929,15.86091 15.86091,15.86091 8.81161,0 15.8609,-7.04929 15.8609,-15.86091 0,0 0,0 0,0 0,-8.81161 -7.16678,-15.8609 -15.8609,-15.8609"
   id="path6"
   style="stroke-width:1.17488" />
<path
   class="st1"
   d="m 100.1526,257.67595 c -3.40715,-0.23498 -6.81431,0.9399 -9.28156,3.28967 L 73.3653,249.45177 c 0.46995,-1.40985 0.70493,-2.81971 0.58744,-4.34706 0,-8.81161 -7.04929,-15.8609 -15.860905,-15.8609 -8.811614,0 -15.860905,7.04929 -15.860905,15.8609 0,8.81161 7.049291,15.86091 15.860905,15.86091 3.407157,0.11748 6.814315,-1.0574 9.281565,-3.28967 l 17.50574,11.98379 c -0.46995,1.40986 -0.70493,2.81972 -0.58744,4.34706 -0.11749,1.52735 0.11749,2.93721 0.58744,4.34707 L 67.3734,290.33766 c -2.70223,-2.11479 -5.874408,-3.28967 -9.281565,-3.28967 -8.811614,0 -15.860905,7.04929 -15.860905,15.86091 0,8.81161 7.049291,15.8609 15.860905,15.8609 8.811615,0 15.860905,-7.04929 15.860905,-15.8609 0.11749,-1.52735 -0.11749,-2.93721 -0.58744,-4.34707 l 17.50574,-11.98379 c 2.70223,2.11479 5.9919,3.28967 9.28156,3.28967 8.69413,0 15.86091,-7.04929 15.86091,-15.86091 0,0 0,0 0,0 0,-8.81161 -7.04929,-16.09588 -15.86091,-16.33085"
   id="path7"
   style="stroke-width:1.17488" />
</svg>
