<?xml version="1.0" encoding="UTF-8" standalone="no"?>
<!-- Created with Inkscape (http://www.inkscape.org/) -->

<svg
   width="400mm"
   height="210mm"
   viewBox="0 0 400 210"
   version="1.1"
   id="svg1"
   xml:space="preserve"
   inkscape:version="1.3.2 (091e20e, 2023-11-25)"
   sodipodi:docname="background.svg"
   xmlns:inkscape="http://www.inkscape.org/namespaces/inkscape"
   xmlns:sodipodi="http://sodipodi.sourceforge.net/DTD/sodipodi-0.dtd"
   xmlns="http://www.w3.org/2000/svg"
   xmlns:svg="http://www.w3.org/2000/svg"><sodipodi:namedview
     id="namedview1"
     pagecolor="#172679"
     bordercolor="#d8d8d8"
     borderopacity="0.24705882"
     inkscape:showpageshadow="2"
     inkscape:pageopacity="0.0"
     inkscape:pagecheckerboard="false"
     inkscape:deskcolor="#d1d1d1"
     inkscape:document-units="mm"
     showborder="true"
     inkscape:zoom="0.34543342"
     inkscape:cx="775.83692"
     inkscape:cy="493.58282"
     inkscape:window-width="1440"
     inkscape:window-height="776"
     inkscape:window-x="0"
     inkscape:window-y="25"
     inkscape:window-maximized="1"
     inkscape:current-layer="svg1" /><defs
     id="defs1" /><path
     style="fill:none;stroke-width:1.5;stroke-dasharray:none;stroke:#d8d8d8;stroke-opacity:1"
     d="m 387.95268,182.68834 c -3.51418,-0.59301 -6.44504,-2.16149 -9.4026,-5.03187 -1.25139,-1.2145 -6.79472,-7.18934 -7.63216,-8.22625 -0.92137,-1.14086 -4.65153,-4.33301 -7.77096,-6.65017 -1.73574,-1.28935 -3.7382,-2.85 -4.44987,-3.46811 -1.56931,-1.36302 -3.71093,-4.09325 -5.21372,-6.6467 -1.70625,-2.89915 -3.52326,-4.23178 -5.26772,-3.86344 -1.86051,0.39286 -4.15982,2.169 -7.33389,5.66517 l -1.59397,1.75573 1.13824,1.51237 c 1.83246,2.43477 4.67218,5.46674 8.6874,9.27552 7.36862,6.98978 9.27979,9.16493 9.50087,10.81321 0.13198,0.98402 -0.31897,1.73624 -1.28212,2.13868 -1.91716,0.80104 -8.11405,0.73546 -11.5271,-0.12198 -2.04335,-0.51334 -5.31583,-2.08047 -6.98924,-3.34704 -2.68716,-2.03382 -5.30491,-4.94893 -7.73431,-8.61288 -0.53833,-0.81189 -1.01253,-1.47615 -1.05379,-1.47615 -0.0412,0 -0.77254,0.55429 -1.62507,1.23176 -2.47771,1.96896 -3.70667,2.73336 -7.18083,4.46647 -14.18174,7.07462 -22.08326,9.4383 -34.0206,10.177 -4.19389,0.25953 -12.22704,0.2731 -12.88807,0.0218 -1.81268,-0.68919 0.16174,-2.8237 7.49246,-8.10009 8.01856,-5.77145 9.04469,-6.51699 12.42008,-9.02387 8.38697,-6.22894 13.65972,-11.23624 15.32416,-14.55267 0.22481,-0.44793 0.97965,-2.23459 1.67744,-3.97035 0.69779,-1.73576 1.54879,-3.6886 1.89111,-4.33964 0.5608,-1.06654 1.37601,-1.9722 1.77526,-1.9722 0.0827,0 0.71578,0.50441 1.40671,1.12093 0.69094,0.61651 1.6957,1.34362 2.2328,1.61578 1.90585,0.96577 2.53076,2.0487 5.82285,10.09059 1.95448,4.77436 5.36304,12.04422 5.76295,12.29139 0.33273,0.20563 8.59504,-8.77439 8.59504,-9.34165 0,-0.11673 -0.12413,-0.39297 -0.27584,-0.61385 -0.15171,-0.22089 -0.71579,-1.22623 -1.25351,-2.2341 -3.50825,-6.57555 -9.71829,-13.30143 -16.31929,-17.67482 -1.10172,-0.72993 -2.38868,-1.7245 -2.85992,-2.21016 -1.15099,-1.18622 -2.4,-3.43192 -4.04151,-7.26656 -1.45027,-3.38792 -2.05749,-4.45598 -2.36087,-4.15261 -0.18396,0.18395 -0.53021,1.83191 -0.99452,4.73333 -0.29055,1.81563 -1.36608,5.20768 -2.13764,6.74175 -1.75376,3.48694 -4.08387,6.3971 -9.76338,12.19379 -2.46871,2.51964 -6.25693,6.4841 -8.41825,8.80992 -2.1613,2.3258 -4.48401,4.69008 -5.16155,5.25393 -2.16662,1.80307 -2.71073,0.98166 -1.25913,-1.90081 1.74179,-3.45873 3.7856,-6.02463 9.62076,-12.07834 9.3418,-9.69169 11.09221,-11.75825 12.8337,-15.15168 1.1844,-2.30791 1.94169,-4.62544 2.38476,-7.29814 0.49417,-2.98098 0.43899,-8.21289 -0.0861,-8.16222 -0.0789,0.008 -0.64005,1.03838 -1.24694,2.29059 -0.9733,2.00818 -1.30955,2.48132 -2.85051,4.01109 -1.37989,1.36985 -2.20501,1.98331 -3.92614,2.91902 -3.09671,1.68355 -3.97328,2.74006 -7.80035,9.4016 -2.8148,4.89953 -3.47662,5.7968 -4.27572,5.7968 -0.60212,0 -1.24068,-0.75137 -1.5141,-1.78157 -0.13033,-0.49108 -0.35164,-0.86534 -0.51171,-0.86534 -0.15514,0 -1.04206,0.98496 -1.97095,2.18879 -3.16574,4.10278 -9.76309,11.53967 -13.19845,14.87802 -3.05038,2.96424 -8.54263,6.20636 -15.99026,9.4392 -0.7839,0.34026 -1.50149,0.6894 -1.59468,0.77585 -0.22106,0.2051 4.90255,6.12487 8.07328,9.3278 2.7492,2.77711 4.08723,3.88608 5.68484,4.71162 0.58908,0.3044 1.07106,0.68226 1.07106,0.8397 0,0.46893 -1.78473,0.6073 -4.98838,0.38676 -6.17068,-0.4248 -10.15434,-1.31244 -13.77429,-3.06918 -3.13323,-1.52055 -4.67196,-1.87098 -8.21536,-1.871 -5.34701,-3e-5 -10.21876,1.3922 -17.46309,4.99053 -4.37962,2.1754 -4.66872,1.97764 -1.07087,-0.73258 5.11509,-3.85316 10.95748,-6.81215 25.25302,-12.78992 2.40765,-1.00678 4.41167,-1.86362 4.45336,-1.90407 0.15782,-0.15322 -5.16167,-6.01174 -6.65684,-7.33138 -1.97954,-1.74715 -3.06092,-2.26053 -4.10357,-1.94814 -0.96784,0.28997 -2.9008,1.66909 -6.29625,4.49221 -3.20903,2.66811 -8.01627,6.31806 -11.72784,8.90452 -11.2158,7.81586 -22.46506,12.14085 -36.54761,14.0514 -2.30712,0.313 -6.37643,0.35178 -43.52117,0.41463 -27.23169,0.0461 -134.9094062,0.28224 -134.9094062,0.14693 0,-0.13488 107.8362762,-0.5074 135.1130062,-0.55162 41.08226,-0.0666 41.18698,-0.0678 44.26367,-0.51138 11.97807,-1.727 22.08594,-5.38299 31.83476,-11.51457 4.06592,-2.55727 10.46698,-7.29002 15.576,-11.51639 5.76782,-4.77135 6.84118,-5.16984 9.2052,-3.41747 1.14301,0.84729 4.21397,3.95056 6.48349,6.55171 0.87936,1.00786 1.67715,1.86478 1.77288,1.90426 0.25105,0.10352 3.99641,-1.58434 7.88761,-3.55465 3.66316,-1.85485 6.46444,-3.58178 8.603,-5.30361 2.25835,-1.81825 10.89217,-11.40369 14.70161,-16.32201 1.37373,-1.7736 1.6979,-2.08285 2.12973,-2.0317 0.42538,0.0503 0.5617,0.24187 0.82677,1.16129 0.22651,0.78571 0.45586,1.16275 0.80093,1.31672 0.43001,0.19188 0.56479,0.12369 1.2178,-0.61607 0.40386,-0.4575 1.72982,-2.56181 2.9466,-4.67624 4.09122,-7.10942 4.8755,-8.07489 7.81487,-9.62023 3.5584,-1.87079 5.33131,-3.69796 7.10064,-7.31792 0.64251,-1.31456 1.22809,-2.26899 1.36474,-2.2244 0.48971,0.15982 0.72558,1.51879 0.73687,4.24573 0.0236,5.6832 -1.46866,10.72625 -4.36072,14.73734 -1.91735,2.65924 -3.7199,4.67825 -9.3101,10.42816 -7.43401,7.64637 -9.61007,10.29372 -11.41235,13.88407 -1.02952,2.05092 -1.1418,2.4622 -0.6722,2.4622 0.43511,0 3.56778,-3.05355 7.29849,-7.11416 1.80663,-1.96639 5.18065,-5.49935 7.49781,-7.85102 2.31716,-2.35167 4.66794,-4.82551 5.22395,-5.49741 3.88247,-4.69176 5.89969,-8.8562 6.65724,-13.74354 0.59848,-3.86108 0.81282,-4.47937 1.55291,-4.47937 0.52618,0 0.81354,0.50548 2.44613,4.30285 2.50453,5.82547 3.39679,7.10661 6.26824,9.00006 5.6125,3.70092 11.31805,9.31413 14.83143,14.59137 0.55917,0.83988 1.59947,2.60429 2.3118,3.9209 0.71232,1.31662 1.34817,2.37029 1.41301,2.34149 0.0649,-0.0288 0.93542,-0.96108 1.93463,-2.07175 3.29021,-3.65721 5.60117,-5.23305 7.70191,-5.25193 2.00716,-0.018 3.25275,1.01669 5.32172,4.42083 2.49484,4.10482 3.82002,5.475 9.26367,9.57819 4.2698,3.21839 7.20765,5.97615 11.74371,11.02377 4.33548,4.82443 6.43978,6.56844 9.45871,7.83924 2.44132,1.02765 3.74164,1.18374 9.8611,1.18374 3.58819,0 5.5859,0.0728 5.5859,0.20361 0,0.24373 -10.5996,0.23958 -12.04731,-0.004 z m -100.14062,-0.8139 c 11.24275,-0.77597 18.34944,-2.89318 32.10153,-9.56362 4.12933,-2.00293 6.763,-3.63472 8.81001,-5.45858 l 1.1062,-0.98561 -1.03324,-1.91989 c -1.33534,-2.48122 -2.70784,-5.53192 -4.98159,-11.07272 -1.73217,-4.22104 -3.28501,-7.53188 -3.88748,-8.28854 -0.14815,-0.18607 -0.81493,-0.65869 -1.48173,-1.05027 -0.6668,-0.39157 -1.74062,-1.17505 -2.38627,-1.74106 -0.64564,-0.56602 -1.28897,-0.98495 -1.42963,-0.93098 -0.52694,0.20221 -1.61829,2.38939 -3.39768,6.80933 -0.69879,1.73576 -1.69173,3.7973 -2.20654,4.58118 -0.5148,0.78389 -2.03967,2.5337 -3.38859,3.88847 -3.94199,3.95905 -7.61903,6.87456 -18.84302,14.94054 -9.75801,7.01246 -11.85003,8.68228 -12.53361,10.00418 -0.2647,0.51185 -0.25851,0.5884 0.0626,0.77545 0.46648,0.2717 9.60902,0.27992 13.48901,0.0121 z m 68.64319,-2.03636 c 1.12032,-0.31078 1.80513,-0.93646 1.80513,-1.64928 0,-1.52147 -1.67328,-3.51075 -8.00169,-9.51286 -4.98637,-4.72927 -7.40967,-7.24933 -9.40678,-9.78237 -0.55992,-0.71018 -1.20331,-1.51757 -1.42975,-1.79422 l -0.4117,-0.50299 -2.27396,2.61345 c -1.25066,1.43739 -3.19513,3.56383 -4.32101,4.7254 l -2.04708,2.11196 1.28482,1.96019 c 4.96048,7.568 10.70324,11.44342 17.85201,12.04721 2.25932,0.19082 5.88928,0.0777 6.95001,-0.21649 z M 228.3282,177.10645 c 7.43428,-3.01351 13.42776,-3.80981 18.35508,-2.43866 0.61591,0.1714 2.1748,0.81006 3.46418,1.41928 2.52271,1.19192 5.03085,1.91679 8.37645,2.42081 2.97175,0.44771 7.94078,0.80146 8.85324,0.63029 l 0.76919,-0.14431 -1.17234,-0.62907 c -2.27001,-1.21806 -5.88188,-4.70572 -10.7022,-10.33417 -1.38937,-1.6223 -2.67361,-3.10895 -2.85388,-3.30367 -0.35865,-0.38743 0.2335,-0.60573 -9.38154,3.45851 -8.77256,3.70813 -14.21729,6.44846 -18.55826,9.34038 -3.24244,2.16009 -3.65262,2.63641 -1.21683,1.41309 1.04426,-0.52446 2.87437,-1.34907 4.06691,-1.83248 z"
     id="path1"
     sodipodi:nodetypes="cssssssscssssssssssscsssssssssssssssssssssssssscsssssssssssssssssssscsssssssscsssssssscssssssscssssssssssssssssssssssccssscssssssssssssssssssscsscsssssssscsssssss" /></svg>
